<svg viewBox="0 0 580.14 114.8" xmlns="http://www.w3.org/2000/svg"><g fill="#282b5e"><path d="m346.17 92.68c.02-.44.05-.78.05-1.12 0-8.79.02-17.58-.03-26.37-.01-1.81-.16-3.65-.51-5.42-1.28-6.5-4.2-12.07-9.38-16.39-6.43-5.35-13.77-7.62-22.06-6.63-7.73.92-14.02 4.55-18.9 10.55-3.84 4.72-5.92 10.2-6.02 16.26-.16 9.52-.08 19.05-.09 28.57 0 .18.08.36.12.51 2.28.21 7.1.13 7.96-.16 0-.33 0-.67 0-1.02 0-8.98 0-17.97-.01-26.95 0-1.64.25-3.24.65-4.82 2.3-9.04 11.29-16.05 21.4-15.15 4.83.43 9 2.29 12.47 5.62 4.48 4.29 6.42 9.63 6.38 15.78-.04 8.52-.01 17.04-.01 25.55 0 .37.03.75.05 1.16h7.93z"/><path d="m432.25 92.66c0-.73 0-1.34 0-1.95 0-8.48-.02-16.96 0-25.44 0-3.18.67-6.22 2.04-9.1 3.85-8.08 12.66-12.84 21.44-11.49 10.09 1.55 17.5 10.22 17.5 20.41v26.25c0 .44.03.89.04 1.3h7.84c.02-.39.05-.69.05-.99 0-9.18-.01-18.35-.03-27.53 0-.73 0-1.48-.09-2.2-.92-7.03-3.65-13.15-9.06-17.94-6.87-6.09-14.85-8.47-23.92-7.07-5.75.89-10.74 3.43-14.97 7.45-5.72 5.43-8.7 12.08-8.77 19.94-.08 9.02-.02 18.04-.02 27.07v1.31h7.93z"/><path d="m209.1 13.65v77.67c0 .39.03.77.06 1.16 0 .03.04.06.07.09s.06.05.11.11h7.84c0-26.43 0-52.68 0-79.02h-8.07z"/><path d="m580.14 43.94c-.66-.02-1.31-.06-1.97-.06-5.63 0-11.26 0-16.89 0-.42 0-.85 0-1.43 0-.13 1.51-.05 2.96-.06 4.41-.02 1.47 0 2.94 0 4.41v4.41s0 2.94 0 4.41v4.41 4.53 8.83 4.41 8.93c-2.67.13-5.25.05-7.81.05-.26-.92-.3-78.18-.04-79.52h7.85v22.62c.56.03.97.06 1.39.06 5.86.01 11.72.02 17.58.04.46 0 .92.09 1.38.13v7.9z"/><path d="m151.47 92.43v22.31h-7.92c-.03-.33-.08-.63-.08-.93 0-16.84-.21-33.69.08-50.53.18-10.74 5.43-18.85 14.8-24.18 4.92-2.8 10.29-3.88 15.92-3.44 7.26.57 13.41 3.56 18.49 8.78 4.8 4.94 7.24 10.91 7.71 17.71.61 8.75-2.3 16.22-8.57 22.34-4.58 4.48-10.13 7.07-16.53 7.77-1 .11-2.01.16-3.02.16-6.44.01-12.89 0-19.33 0-.46 0-.91 0-1.56 0zm.03-8.05c.53.03.9.07 1.28.07h19.79c.85 0 1.71-.04 2.55-.17 4.53-.7 8.39-2.78 11.56-6.01 7.38-7.51 7.52-18.64 2-26.16-4.73-6.46-13.2-10.08-21.58-7.93-8.91 2.29-15.45 10.14-15.59 19.63-.1 6.38-.01 12.77-.01 19.16v1.43z"/><path d="m544.74 68.27h-48.6c.21 1.62.71 2.99 1.32 4.33 1.5 3.27 3.71 6.02 6.57 8.16 2.86 2.15 6.17 3.39 9.74 3.85 1.19.15 2.4.21 3.6.22 7.37.01 14.75 0 22.12 0 .38 0 .76.03 1.22.06v7.76c-.33.03-.66.07-1 .07-7.88 0-15.76 0-23.64 0-8.63 0-15.79-3.37-21.42-9.78-3.8-4.33-6.2-9.39-6.79-15.24-.61-6.07.29-11.84 3.33-17.15 4.54-7.95 11.4-12.73 20.44-14.26 7.06-1.2 13.69.14 19.74 3.94 4.12 2.6 7.56 5.93 9.86 10.3 2.21 4.21 3.51 8.67 3.51 13.45v4.28zm-8.55-8.06c-1.14-7.71-9.23-17.06-21.33-16.3-10.99.69-17.75 9.68-18.56 16.3z"/><path d="m273.01 44.32v-8.83h7.91v57.13c-.2.03-.42.1-.64.1-9.62 0-19.25.04-28.87-.05-6.57-.06-12.35-2.44-17.37-6.61-4.78-3.96-8.02-9-9.34-15.02-2.09-9.54-.08-18.23 6.41-25.68 4.42-5.07 10.11-8.02 16.73-9.07 9.22-1.46 17.26 1.13 24.15 7.36.2.18.4.37.6.54.05.04.14.04.42.12zm-.14 40.5c.05-.4.1-.62.1-.85 0-6.5.04-13.01-.02-19.51-.04-4.92-1.53-9.39-4.77-13.15-5.19-5.99-11.8-8.58-19.58-7.03-8.13 1.61-13.5 6.63-15.92 14.6-.93 3.05-1.09 6.18-.45 9.3 1.83 8.93 9.67 16.63 20.76 16.66 6.21.02 12.42-.01 18.63-.02h1.26z"/><path d="m346.17 92.68h-7.93c-.02-.41-.05-.79-.05-1.16 0-8.52-.03-17.04.01-25.55.03-6.15-1.91-11.49-6.38-15.78-3.47-3.33-7.64-5.19-12.47-5.62-10.11-.9-19.1 6.11-21.4 15.15-.4 1.58-.66 3.17-.65 4.82.02 8.98.01 17.97.01 26.95v1.02c-.86.28-5.68.37-7.96.16-.04-.16-.12-.34-.12-.51.01-9.52-.07-19.05.09-28.57.1-6.06 2.18-11.54 6.02-16.26 4.88-6.01 11.17-9.64 18.9-10.55 8.29-.98 15.63 1.28 22.06 6.63 5.19 4.32 8.1 9.9 9.38 16.39.35 1.77.5 3.61.51 5.42.05 8.79.03 17.58.03 26.37 0 .34-.03.68-.05 1.12z"/><path d="m432.25 92.66h-7.93c0-.48 0-.89 0-1.31 0-9.02-.06-18.04.02-27.07.07-7.86 3.05-14.51 8.77-19.94 4.23-4.02 9.22-6.56 14.97-7.45 9.06-1.4 17.05.99 23.92 7.07 5.4 4.79 8.13 10.91 9.06 17.94.1.73.09 1.47.09 2.2.01 9.18.02 18.35.03 27.53 0 .3-.03.61-.05.99h-7.84c-.01-.41-.04-.85-.04-1.3 0-8.75 0-17.5 0-26.25 0-10.2-7.41-18.86-17.5-20.41-8.79-1.35-17.6 3.41-21.44 11.49-1.37 2.88-2.04 5.92-2.04 9.1-.01 8.48 0 16.96 0 25.44v1.95z"/><path d="m209.1 13.65h8.07c.02 26.34 0 52.6 0 79.02h-7.84c-.06-.05-.09-.08-.11-.11-.03-.03-.07-.06-.07-.09-.02-.39-.06-.77-.06-1.16 0-25.85 0-51.71 0-77.67z"/></g><g fill="#97c23a"><path d="m38.76 87.26c.55-.8 1.51-2.11 2.86-3.58 4.44-4.82 8.28-6.07 17.89-12.16 3.37-2.14 5.08-3.23 6.12-4.26 1.23-1.23 6.97-6.42 6.15-13.85-.62-5.61-2.96-10.39-7.45-14.12-5.48-4.55-11.67-5.47-18.35-4-4.4.97-7.77 3.66-10.65 7.07-1.22 1.44-4.31 5.31-4.42 10.65-.01.69.02 1.26.06 1.67 1.77.04 3.53.08 5.3.12.08-.82.27-1.97.71-3.3.3-.9 1.44-4.02 4.51-6.76 2.97-2.65 6.08-3.43 6.98-3.65 5.55-1.38 9.86.76 13.42 4.26 2.9 2.85 4.38 6.91 3.52 11.08-.64 3.15-2.7 5.8-5.38 7.61-5.87 3.98-11.93 7.68-17.8 11.66-4.33 2.94-7.73 4.97-9.58 9.18-.74 1.68-1.04 3.21-1.17 4.25.04 1.41.09 2.81.13 4.22h24.33c3.49-.31 9.24-1.29 15.44-4.65 7.13-3.86 11.48-8.98 13.65-12.16 2.92-4.29 4.91-8.88 6.24-13.92 1.45-5.51 1.46-11.04.41-16.41-1.23-6.37-4-12.22-8.23-17.35-3.62-4.38-7.86-7.93-12.91-10.36-3.2-1.54-6.66-2.72-10.14-3.42-3.5-.71-7.2-1.09-10.74-.81-1.17.09-6.62.54-13.01 3.5-2.7 1.25-12.44 6.13-18.44 16.77-4.25 7.54-4.99 14.59-5.02 21.46-.06 16.52-.11 33.04-.17 49.55-4.28-.02-8.55-.04-12.83-.06-.07-18.45-.13-36.9-.2-55.36.26-4.5 1.18-10.69 4.01-17.47 2.47-5.93 5.38-10.12 6.96-11.98 3.04-3.58 6.5-6.86 10.13-9.86 4.84-4 10.5-6.51 16.53-8.37 7.34-2.28 14.78-3.08 22.28-1.92 6.61 1.02 12.96 3.08 18.88 6.51 4.78 2.77 9.09 6.04 12.8 10.04 1.79 1.93 3.43 3.99 4.91 6.17 0 0 2.08 3.07 3.72 6.48 6.42 13.29 5.25 27.5 5.25 27.5-.22 2.64-.91 8.5-3.69 15.38-1.05 2.59-3.94 9.15-9.94 15.85-3.52 3.93-6.72 6.35-7.64 7.03-1.37 1.01-6.04 4.37-13.04 6.92-5.58 2.03-10.63 2.82-14.51 3.1-12.24-.03-24.49-.06-36.73-.09-.11-17.97-.21-35.94-.32-53.91.37-3.85 1.63-11.5 6.79-18.18 2.07-2.68 4.29-4.58 4.92-5.1 2.87-2.4 6.12-4.27 9.77-5.7 5.29-2.07 10.74-2.81 16.17-1.94 6.35 1.02 12.21 3.43 17.2 7.9 5.11 4.59 8.59 9.94 10.48 16.54 1.47 5.12 1.55 10.27.55 15.33-1.15 5.8-3.76 10.99-7.84 15.53-3.06 3.41-6.62 5.98-10.54 8.04-3.02 1.59-5.86 2.03-7.74 2.43-2.77.59-5.17.82-7 .9h-13.6z"/><path d="m375.74 106.68c11.82-.1 23.63-.21 35.45-.31v8.43h-53.07v-3.72c.02-.36.08-.88.25-1.49.96-3.37 4.32-5.09 5.95-5.95 0 0 4.59-2.42 12.95-7.66 3.98-2.5 6.99-4.79 10-7.13 3.15-2.44 5.99-4.75 9.45-8.14 2.62-2.56 4.88-5.41 6.92-8.49 1.96-2.96 2.9-6.2 2.71-9.56-.32-5.49-2.73-9.4-3.9-11.05-.93-1.3-4.43-6.07-11.02-8.01-1.63-.48-4.61-1.13-8.27-.64-.99.13-5.61.84-10.07 4.43-.72.58-2.47 2.07-4.13 4.46-3.04 4.38-3.8 8.9-4 11.53-2.47-.02-4.93-.04-7.4-.06-.05-1.88.07-4.61.92-7.76.36-1.34 2.05-7.18 7.4-12.5 1.79-1.78 6.37-5.87 13.55-7.6 4.98-1.2 9.04-.75 10.59-.52 1.66.24 5.48.96 9.64 3.33.79.45 2.71 1.6 4.85 3.5.58.52 2.19 1.99 3.83 4.13 1.45 1.9 4.6 6.11 5.69 12.5.92 5.39-.09 9.58-.37 10.66-.74 2.85-1.77 4.83-2.91 6.78-3.25 5.53-8.24 10.43-8.24 10.43-5.95 6.03-11.53 9.95-13.91 11.61-.46.32-3.22 2.21-8.75 5.98-.76.52-3.34 2.28-4.1 2.8z"/></g></svg>